<?xml version="1.0" encoding="utf-8"?>
<!-- Generator: Adobe Illustrator 24.3.0, SVG Export Plug-In . SVG Version: 6.00 Build 0)  -->
<svg version="1.1" id="Capa_1" xmlns="http://www.w3.org/2000/svg" xmlns:xlink="http://www.w3.org/1999/xlink" x="0px" y="0px"
	 viewBox="0 0 787 433" style="enable-background:new 0 0 787 433;" xml:space="preserve">
	<style type="text/css">
		.st0{fill:#AE88FF;}
		.st1{stroke:#AE88FF;stroke-width:30;stroke-miterlimit:10;}
	</style>
	<g>
		<path class="st0" d="M394.5,292.5c-194.6,0-353-34.1-353-76c0-24.2,54.6-47.2,146.2-61.5c-0.2,0.6-0.5,1.6-0.8,2.7l-0.4-0.1l0,0
			v0.1v0.1l0.4,0.1c-0.7,2.5-1.5,5.5-1.8,6.7C112.2,177.3,70.5,196.1,70.5,216c0,18.2,33.8,35.2,95.1,47.9
			c61.1,12.7,142.4,19.6,228.9,19.6s167.7-7,228.9-19.6c61.4-12.7,95.1-29.7,95.1-47.9c0-20.3-42.9-39.3-117.8-52.1
			c-0.5-1.5-1-3-1.4-4.5c-0.5-1.6-0.8-3.2-1.2-4.9c93.6,14.3,149.4,37.5,149.4,62C747.5,258.4,589.1,292.5,394.5,292.5z"/>
		<path class="st0" d="M598.7,155.1c92.9,14.3,148.3,37.2,148.3,61.4c0,9.9-9.2,19.6-27.2,28.9c-17.7,9.1-43.1,17.2-75.5,24.2
			C577.6,284.1,488.9,292,394.5,292s-183.1-7.9-249.8-22.4c-32.4-7-57.8-15.2-75.5-24.2c-18.1-9.2-27.2-19-27.2-28.9
			c0-23.9,54.2-46.6,145-60.9c-0.2,0.5-0.3,1.2-0.5,1.9l-0.4-0.1v0.1v0.1l0,0l0,0l0.4,0.1c-0.6,2.3-1.4,5-1.7,6.3
			c-34.8,6.1-63.5,13.9-83.1,22.4C80.6,195.6,70,205.6,70,216c0,18.4,33.9,35.6,95.5,48.4C226.7,277,308,284,394.5,284
			s167.8-7,229-19.6c61.6-12.8,95.5-29.9,95.5-48.4c0-10.6-10.9-20.7-32.5-30c-20.1-8.7-49.7-16.5-85.4-22.6
			c-0.5-1.4-0.9-2.8-1.3-4.2C599.4,157.9,599,156.5,598.7,155.1 M597.5,153.9c0.3,1.8,0.8,3.6,1.3,5.6c0.5,1.7,1,3.3,1.5,4.8
			C672.2,176.6,718,195.2,718,216c0,37-144.8,67-323.5,67S71,253,71,216c0-20.5,44.5-38.8,114.5-51.1c0.4-1.7,2.8-10.2,2.9-10.5
			C99.1,168.2,41,190.9,41,216.5c0,42.2,158.3,76.5,353.5,76.5S748,258.8,748,216.5C748,190.6,688.5,167.7,597.5,153.9L597.5,153.9z
			M187,157.7L187,157.7L187,157.7L187,157.7L187,157.7z"/>
	</g>
	<g>
		<path class="st0" d="M394.5,271.5c-78.4,0-152-5.8-207.4-16.4c-54.4-10.4-85.6-24.6-85.6-39.1c0-14.1,28.5-27.6,80.2-38
			c-0.6,2.6-1.1,5.1-1.5,7.6c-35.8,8.6-54.8,19-54.8,30.1c0,13.4,28.1,25.9,79.1,35.2c50.8,9.3,118.2,14.4,190,14.4
			s139.3-5.1,190-14.4c51-9.3,79.1-21.8,79.1-35.2c0-14.5-32-24.9-59-31.1c-0.1-0.7-0.2-1.4-0.3-2.1c-0.2-1.7-0.4-3.5-0.6-5.2
			c54,10.5,83.8,24.2,83.8,38.8c0,14.5-31.2,28.7-85.6,39.1C546.5,265.7,472.9,271.5,394.5,271.5z"/>
		<path class="st0" d="M604.3,177.9C656.9,188.2,687,202,687,216c0,14.2-31,28.3-85.2,38.6c-55.4,10.6-129,16.4-207.3,16.4
			s-152-5.8-207.3-16.4C133,244.3,102,230.2,102,216c0-6.9,7.1-13.7,21.2-20.3c13.6-6.3,33.1-12.1,57.8-17.1
			c-0.5,2.2-0.9,4.4-1.3,6.6c-25.2,6.1-54.8,16.3-54.8,30.5c0,7.1,7.3,13.8,21.7,20c13.6,5.9,33,11.1,57.8,15.7
			c50.8,9.3,118.3,14.4,190.1,14.4s139.3-5.1,190.1-14.4c24.7-4.5,44.2-9.8,57.8-15.7c14.4-6.2,21.7-13,21.7-20
			c0-14.8-32-25.2-59.1-31.5c-0.1-0.6-0.2-1.2-0.2-1.8C604.6,180.9,604.4,179.4,604.3,177.9 M603.1,176.6c0.2,1.9,0.4,3.9,0.7,5.9
			c0.1,0.8,0.2,1.7,0.3,2.5c36.9,8.4,59,19.1,59,30.7c0,27.1-120.3,49-268.6,49s-268.6-22-268.6-49c0-11.1,20.4-21.4,54.7-29.7
			c0.5-2.9,1-5.8,1.7-8.7C132,187.4,101,201,101,216c0,30.9,131.4,56,293.5,56S688,246.9,688,216C688,200.7,655.6,186.8,603.1,176.6
			L603.1,176.6z"/>
	</g>
	<g>
		<path class="st0" d="M393.5,307.5c-216.7,0-393-40.8-393-91c0-16,18.4-31.8,53.2-45.6c33.7-13.4,82-24.7,139.6-32.7
			c-0.6,1.7-1.3,3.4-1.9,5.1c-0.7,2-1.5,4.1-2.2,6.1c-47.1,7.2-86.2,17-113.3,28.2c-28.5,11.8-43,24.7-43,38.3
			c0,21.7,37.6,42,105.9,57.2c68,15.1,158.5,23.5,254.7,23.5s186.7-8.3,254.7-23.5c68.3-15.2,105.9-35.5,105.9-57.2
			c0-26.8-59.1-51.8-158-66.8c-0.5-1.9-1.1-3.9-1.8-5.8c-0.6-1.8-1.3-3.6-2-5.3c119.8,16.3,194.2,46.4,194.2,78.5
			C786.5,266.7,610.2,307.5,393.5,307.5z"/>
		<path class="st0" d="M593.1,138.7C712.1,155,786,184.8,786,216.5c0,12-10.2,23.6-30.4,34.7c-19.7,10.9-48,20.6-84.1,29
			c-74.3,17.3-173,26.8-278,26.8s-203.8-9.5-278-26.8c-36-8.4-64.3-18.1-84.1-29C11.2,240.2,1,228.5,1,216.5
			c0-15.8,18.3-31.4,52.8-45.1c33.5-13.4,81.5-24.6,138.6-32.5c-0.5,1.4-1.1,2.9-1.6,4.3c-0.7,1.9-1.4,3.9-2.1,5.8
			c-47,7.2-86.1,17-113.1,28.1c-28.8,11.9-43.3,25-43.3,38.8c0,21.9,37.7,42.4,106.3,57.6c68.1,15.2,158.6,23.5,254.9,23.5
			s186.8-8.3,254.9-23.5c68.5-15.2,106.3-35.7,106.3-57.6c0-13.9-14.8-27.1-43.8-39c-27.3-11.2-66.8-21-114.3-28.2
			c-0.5-1.9-1.1-3.7-1.7-5.5C594.2,141.7,593.7,140.1,593.1,138.7 M591.5,137.4c0.8,1.9,1.6,3.9,2.3,6.1c0.7,2.1,1.4,4.2,1.9,6.1
			c95.3,14.4,157.9,38.7,157.9,66.3c0,44.3-161.2,80.1-360.1,80.1S33.4,260.2,33.4,215.9c0-27.4,61.8-51.6,156.2-66.1
			c0.7-2.1,1.5-4.2,2.3-6.4c0.7-2,1.5-3.9,2.2-5.9C77.9,153.5,0,182.9,0,216.5C0,267.1,176.2,308,393.5,308S787,267,787,216.5
			C787,182.8,708.4,153.3,591.5,137.4L591.5,137.4z"/>
	</g>
	<g>
		<path class="st1" d="M392.8,3c28.8,0,56.8,5.6,83.1,16.8c25.4,10.8,48.3,26.1,67.9,45.8c19.6,19.6,35,42.4,45.8,67.9
			c11.1,26.3,16.8,54.3,16.8,83.1s-5.6,56.8-16.8,83.1c-10.8,25.4-26.1,48.3-45.8,67.9c-19.6,19.6-42.4,35-67.9,45.8
			c-26.3,11.1-54.3,16.8-83.1,16.8s-56.8-5.6-83.1-16.8c-25.4-10.8-48.3-26.1-67.9-45.8c-19.6-19.6-35-42.4-45.8-67.9
			c-11.1-26.3-16.8-54.3-16.8-83.1s5.6-56.8,16.8-83.1c10.8-25.4,26.1-48.3,45.8-67.9c19.6-19.6,42.4-35,67.9-45.8
			C336,8.6,364,3,392.8,3 M392.8,2C274.3,2,178.3,98,178.3,216.5S274.3,431,392.8,431s214.5-96,214.5-214.5S511.3,2,392.8,2L392.8,2z
			"/>
	</g>
</svg>
